HIERARCHY
ROOT ROOT
{
	OFFSET 0.000000 56.020000 -5.659234
	CHANNELS 6 Xposition Yposition Zposition Xrotation Yrotation Zrotation 
	JOINT C_spine0001_bind_JNT
	{
		OFFSET 0.000000 1.618999 0.000000
		CHANNELS 3 Xrotation Yrotation Zrotation
		JOINT C_spine0002_bind_JNT
		{
			OFFSET 0.000000 4.942001 0.000001
			CHANNELS 3 Xrotation Yrotation Zrotation
			JOINT C_spine0003_bind_JNT
			{
				OFFSET 0.000000 4.942001 -0.000000
				CHANNELS 3 Xrotation Yrotation Zrotation
				JOINT C_neck0001_bind_JNT
				{
					OFFSET 0.000000 17.026009 -0.000000
					CHANNELS 3 Xrotation Yrotation Zrotation
					JOINT C_neck0002_bind_JNT
					{
						OFFSET 0.000000 3.249985 0.000000
						CHANNELS 3 Xrotation Yrotation Zrotation
						JOINT C_head_bind_JNT
						{
							OFFSET 0.000000 5.278008 0.000000
							CHANNELS 3 Xrotation Yrotation Zrotation
							End Site
							{
								OFFSET 0.000000 0.000000 0.000000
							}
						}
					}
				}
				JOINT L_clavicle_bind_JNT
				{
					OFFSET 4.590000 12.067001 0.834000
					CHANNELS 3 Xrotation Yrotation Zrotation
					JOINT L_armUpper0001_bind_JNT
					{
						OFFSET 7.812635 0.512001 -3.452945
						CHANNELS 3 Xrotation Yrotation Zrotation
						JOINT L_armLower0001_bind_JNT
						{
							OFFSET 15.265892 -6.552116 -0.058157
							CHANNELS 3 Xrotation Yrotation Zrotation
							JOINT L_hand0001_bind_JNT
							{
								OFFSET 14.747667 -6.369995 5.049225
								CHANNELS 3 Xrotation Yrotation Zrotation
								End Site
								{
									OFFSET 0.000000 0.000000 0.000000
								}
							}
						}
					}
				}
				JOINT R_clavicle_bind_JNT
				{
					OFFSET -4.590000 12.067001 0.834000
					CHANNELS 3 Xrotation Yrotation Zrotation
					JOINT R_armUpper0001_bind_JNT
					{
						OFFSET -7.812635 0.512001 -3.452945
						CHANNELS 3 Xrotation Yrotation Zrotation
						JOINT R_armLower0001_bind_JNT
						{
							OFFSET -15.265890 -6.552124 -0.058160
							CHANNELS 3 Xrotation Yrotation Zrotation
							JOINT R_hand0001_bind_JNT
							{
								OFFSET -14.746784 -6.369629 5.048937
								CHANNELS 3 Xrotation Yrotation Zrotation
								End Site
								{
									OFFSET 0.000000 0.000000 0.000000
								}
							}
						}
					}
				}
			}
		}
	}
	JOINT C_pelvis0001_bind_JNT
	{
		OFFSET -0.000000 0.000000 0.000000
		CHANNELS 3 Xrotation Yrotation Zrotation
		JOINT L_legUpper0001_bind_JNT
		{
			OFFSET 6.599999 -6.027000 0.539000
			CHANNELS 3 Xrotation Yrotation Zrotation
			JOINT L_legLower0001_bind_JNT
			{
				OFFSET -0.140713 -19.187443 0.040261
				CHANNELS 3 Xrotation Yrotation Zrotation
				JOINT L_foot0001_bind_JNT
				{
					OFFSET -0.132215 -18.028637 -1.138370
					CHANNELS 3 Xrotation Yrotation Zrotation
					JOINT L_foot0002_bind_JNT
					{
						OFFSET 0.007014 -4.693133 9.886524
						CHANNELS 3 Xrotation Yrotation Zrotation
						End Site
						{
							OFFSET 0.000000 0.000000 0.000000
						}
					}
				}
			}
		}
		JOINT R_legUpper0001_bind_JNT
		{
			OFFSET -6.599999 -6.027000 0.539000
			CHANNELS 3 Xrotation Yrotation Zrotation
			JOINT R_legLower0001_bind_JNT
			{
				OFFSET 0.140710 -19.187164 0.040550
				CHANNELS 3 Xrotation Yrotation Zrotation
				JOINT R_foot0001_bind_JNT
				{
					OFFSET 0.132215 -18.028633 -1.138362
					CHANNELS 3 Xrotation Yrotation Zrotation
					JOINT R_foot0002_bind_JNT
					{
						OFFSET -0.007014 -4.693128 9.886505
						CHANNELS 3 Xrotation Yrotation Zrotation
						End Site
						{
							OFFSET 0.000000 0.000000 0.000000
						}
					}
				}
			}
		}
	}
}
MOTION
Frames: 8
Frame Time: 0.033333
-1.731261 49.062115 70.569031 0.035606 -13.064078 -0.030671 3.858780 -9.158147 2.648222 -4.886460 -3.448918 0.181650 3.640706 -2.146335 -0.502751 6.370407 3.213905 0.118129 -0.238351 0.249224 -0.664020 -24.605375 5.626769 2.297991 11.089294 9.233253 9.736975 -35.052376 -13.784553 -72.320160 8.746267 10.856708 6.081835 -0.083688 -23.328043 -3.626177 12.346331 1.162359 -10.362959 0.160969 -20.306974 72.986420 -14.079345 -30.387032 -0.714801 -9.971174 20.702385 27.777592 5.408161 -2.556735 -0.105944 3.921408 -0.641450 -6.076149 -27.955570 6.229357 -1.195002 -7.707245 1.696011 3.979169 -3.908571 0.355130 1.527244 -24.196911 -8.815207 -3.530381 6.417208 6.197536 1.110357 0.532460 7.271036 6.843445 0.184241 1.420423 1.438420
-1.996011 48.996120 71.433823 0.047599 -13.263111 -0.021865 3.481803 -6.499949 2.543967 -4.839387 -3.481291 0.301403 3.646482 -2.203326 -0.195871 6.184964 3.019665 0.287759 -0.214518 0.321679 -0.574562 -24.778393 4.940301 2.593544 11.361076 8.776416 9.880002 -35.004196 -14.162311 -73.453606 10.373424 9.498793 5.589364 1.264286 -23.207466 -3.833193 12.279948 1.090070 -9.768310 -0.187024 -20.418728 72.523872 -15.045994 -30.233387 -1.245903 -10.266331 20.493755 28.205872 5.362649 0.109849 -0.598324 4.565807 -1.069466 -5.220446 -27.576402 5.666559 -1.170477 -8.193905 0.830240 3.625324 -4.052898 0.316148 1.387452 -23.597811 -9.416095 -3.361359 6.990225 6.034526 1.074194 1.433891 6.915222 6.166568 0.301744 1.258562 1.087552
-2.372225 48.941349 72.375557 0.031128 -12.952297 -0.025140 3.433377 -4.245156 2.468316 -5.083432 -3.441497 0.262462 3.403757 -2.021388 0.173815 6.424129 2.499207 0.514551 -0.283533 0.310466 -0.652706 -24.932413 4.404736 2.827167 11.779220 8.103172 9.954027 -34.486462 -14.234349 -74.043419 11.519028 8.628218 5.044735 1.774745 -23.172028 -3.911851 12.651095 0.982742 -9.410227 -1.285254 -20.167503 71.964653 -15.950807 -30.697317 -1.593538 -10.260566 20.739767 27.980307 5.584115 2.193304 -0.983926 5.326258 -1.575611 -4.361136 -27.528363 5.169579 -0.956507 -8.671695 0.178271 2.991285 -4.222281 0.167493 1.336779 -22.977951 -9.730605 -3.189588 7.863580 5.461699 0.664197 2.212528 6.212649 4.819713 0.369234 1.098148 0.925955
-2.918914 48.800423 73.386536 0.035831 -13.071153 -0.025737 3.169301 -1.613139 2.220211 -5.126486 -3.328681 0.433697 3.231686 -2.055890 0.345168 6.267366 2.386229 0.717313 -0.138392 0.305836 -0.471269 -24.861298 3.576239 2.896814 12.027938 7.935202 10.345233 -34.074020 -13.966909 -74.961105 12.261977 8.347382 4.793680 2.346696 -23.274912 -3.981485 12.571733 1.041009 -9.188603 -2.198308 -19.668854 71.530769 -16.254276 -30.611444 -2.120380 -10.422132 20.912731 27.683943 5.589270 4.629406 -1.318552 6.273456 -1.665844 -3.184542 -26.860842 4.244386 -1.008461 -9.525661 -0.472974 2.366084 -4.555809 -0.009320 1.142557 -21.818310 -10.368019 -3.020356 8.517958 4.981413 0.400899 3.002169 5.262515 3.269764 0.457074 0.783412 0.504143
-3.541912 48.693676 74.428757 0.034199 -12.318002 -0.037089 2.953592 0.168470 2.073633 -5.310105 -3.100724 0.305942 3.116477 -1.822134 0.478128 6.288782 1.895616 1.012111 -0.076558 0.264965 -0.466256 -24.754128 2.831514 2.966956 12.273719 7.484830 10.793120 -33.047012 -13.246875 -75.341614 12.327105 8.664965 4.496875 2.249833 -23.763153 -3.980804 12.724837 0.891506 -9.021377 -3.463005 -18.856369 71.129967 -16.345699 -30.475065 -2.299199 -10.169952 21.155706 26.826469 5.580436 6.143829 -1.558798 7.226690 -1.786320 -2.123831 -26.429264 3.469578 -0.812690 -9.851545 -0.746320 1.826105 -5.271756 0.036559 0.733879 -20.451204 -10.580681 -2.615900 9.292550 3.918566 0.300949 2.651743 3.904461 2.035081 0.369081 0.733885 0.323633
-4.202288 48.637600 75.582726 0.034006 -12.196633 -0.029413 2.541625 2.486260 1.509594 -5.256605 -2.955543 0.538174 2.994870 -1.595905 0.704634 6.236262 1.510071 1.126907 -0.197529 0.313123 -0.365694 -24.724463 1.891898 3.155787 12.459904 7.370242 11.386391 -32.071541 -12.243265 -76.042412 11.916872 9.227251 4.374729 2.415338 -24.104734 -4.118858 12.603874 0.850682 -9.248575 -4.842060 -17.578270 70.874763 -16.346756 -30.067064 -2.956416 -10.024862 21.141872 25.835104 5.546797 7.988398 -1.913716 8.166824 -1.277718 -0.773383 -25.678820 2.226352 -0.536831 -9.883468 -1.695715 0.870711 -6.801023 0.025282 0.492922 -18.161522 -10.831361 -1.887493 8.841630 3.073525 0.224196 2.213192 2.310123 1.146335 0.053526 0.466321 0.264755
-4.839336 48.666164 76.627495 0.035265 -12.083140 -0.025830 2.263574 5.119842 1.178826 -5.463234 -2.611381 0.343841 2.790779 -1.459913 0.872663 6.337054 1.005276 1.364305 -0.127720 0.281339 -0.386082 -24.656500 0.725485 3.161823 12.820914 7.102212 11.624822 -30.832726 -11.153467 -76.176086 11.239895 10.271247 4.079457 2.262739 -24.356153 -4.620692 12.954743 0.796302 -9.347688 -6.465941 -16.357779 70.388023 -16.300529 -29.675863 -3.014632 -9.336342 20.884304 24.565178 5.514019 10.030349 -2.451517 8.415141 -0.683923 0.439256 -24.315791 0.865460 -0.016925 -9.116747 -2.503666 0.195066 -9.286132 -0.032940 0.089971 -16.285307 -10.710435 -0.968080 8.687840 1.447879 0.488793 1.009176 0.853103 0.677806 0.190008 0.541613 0.070786
-5.543293 48.733063 77.691559 0.028066 -12.197265 -0.027915 1.894748 8.203347 0.777237 -5.559466 -2.332274 0.376587 2.651520 -1.282229 0.746216 6.378935 0.290913 1.674608 -0.074050 0.188450 -0.336041 -24.420994 -0.704535 3.347999 12.880695 6.819890 11.653142 -29.167078 -9.686018 -76.041306 10.547219 11.163460 4.181069 2.088411 -24.255524 -5.257210 12.645851 1.066695 -9.105742 -7.881712 -14.775483 69.723000 -16.497576 -29.447996 -3.547701 -9.307091 20.864323 23.547976 5.527583 12.562130 -2.927644 8.260295 -0.148790 2.195487 -22.540095 -0.449525 0.250950 -7.240243 -3.957558 -0.381586 -13.262641 -0.205772 -0.289167 -14.399189 -10.409992 0.101323 8.563926 0.047528 0.514093 -0.247963 -0.970070 0.004693 -0.029150 0.254855 0.141430
